<?xml version="1.0" encoding="UTF-8" standalone="no"?>
<!DOCTYPE svg PUBLIC "-//W3C//DTD SVG 1.1//EN" "http://www.w3.org/Graphics/SVG/1.1/DTD/svg11.dtd">
<svg width="100%" height="100%" viewBox="0 0 864 864" version="1.1" xmlns="http://www.w3.org/2000/svg" xmlns:xlink="http://www.w3.org/1999/xlink" xml:space="preserve" xmlns:serif="http://www.serif.com/" style="fill-rule:evenodd;clip-rule:evenodd;stroke-linejoin:round;stroke-miterlimit:2;">
    <g id="g3709" transform="matrix(1.4189,0,0,1.4189,-56.784,842.89)">
        <path id="path3680" d="M187.115,-83.769C184.114,-83.663 181.049,-83.754 178.106,-83.447C172.411,-82.854 166.839,-81.932 161.414,-80.708C155.988,-79.483 150.711,-77.953 145.622,-76.25C140.533,-74.546 135.628,-72.638 130.943,-70.61C126.257,-68.582 121.804,-66.418 117.589,-64.219C113.247,-61.954 110.02,-59.732 106.248,-57.451C127.316,-37.741 155.393,-25.602 186.321,-25.602C186.625,-25.602 186.918,-25.653 187.222,-25.655L187.116,-83.768L187.115,-83.769Z" style="fill-rule:nonzero;"/>
        <path id="path3686" d="M65.274,-138.39C67.986,-107.814 82.239,-80.559 103.795,-60.886C107.662,-63.167 110.971,-65.389 115.422,-67.654C119.744,-69.853 124.31,-72.017 129.114,-74.045C133.918,-76.073 138.946,-77.982 144.163,-79.684C149.381,-81.388 154.792,-82.918 160.354,-84.142C165.917,-85.367 171.629,-86.289 177.468,-86.882C180.485,-87.188 183.627,-87.098 186.704,-87.204L186.595,-129.044C171.015,-129.179 155.804,-129.713 141.446,-130.602C126.449,-131.531 112.319,-132.811 99.611,-134.147C86.903,-135.482 75.589,-136.913 66.143,-138.229C65.598,-138.305 65.806,-138.315 65.274,-138.39L65.274,-138.39Z" style="fill-rule:nonzero;"/>
        <path id="path3670" d="M65.291,-141.827C65.825,-141.752 65.616,-141.742 66.162,-141.666C75.631,-140.35 86.973,-138.919 99.712,-137.584C112.45,-136.249 126.615,-134.968 141.648,-134.039C156.04,-133.15 171.288,-132.617 186.906,-132.482L186.797,-180.014C186.478,-180.002 186.192,-179.917 185.871,-179.907C180.887,-179.752 176.131,-179.866 171.548,-180.229C166.964,-180.592 162.562,-181.189 158.368,-182.001C154.174,-182.814 150.203,-183.814 146.386,-185.009C142.569,-186.204 138.945,-187.581 135.494,-189.091C132.042,-190.6 128.734,-192.276 125.636,-194.032C122.538,-195.789 119.624,-197.629 116.868,-199.564C111.354,-203.435 106.491,-207.63 102.272,-211.81C98.052,-215.991 94.454,-220.162 91.434,-224.11C90.968,-224.718 90.728,-225.179 90.29,-225.775C74.288,-205.482 64.692,-180.055 64.692,-152.353C64.692,-148.796 64.982,-145.303 65.291,-141.826L65.291,-141.827Z" style="fill-rule:nonzero;"/>
        <path id="path3665" d="M93,-229.223C93.426,-228.628 93.66,-228.167 94.113,-227.558C97.052,-223.61 100.553,-219.439 104.658,-215.259C108.764,-211.079 113.496,-206.884 118.86,-203.013C121.543,-201.078 124.378,-199.237 127.392,-197.481C130.407,-195.725 133.625,-194.049 136.984,-192.54C140.342,-191.03 143.868,-189.653 147.582,-188.458C151.296,-187.263 155.16,-186.263 159.241,-185.45C163.322,-184.637 167.605,-184.041 172.065,-183.678C176.525,-183.315 181.152,-183.201 186.002,-183.356C186.314,-183.366 186.593,-183.451 186.903,-183.463L186.691,-275.629C186.566,-275.629 186.445,-275.629 186.32,-275.629C148.352,-275.629 114.63,-257.415 93,-229.224L93,-229.223Z" style="fill-rule:nonzero;"/>
        <path id="path3683" d="M273.226,-57.507C270.778,-59.4 268.364,-61.268 265.904,-62.932C262.834,-65.008 259.739,-66.889 256.657,-68.625C253.575,-70.361 250.495,-71.937 247.41,-73.351C244.325,-74.766 241.244,-76.052 238.164,-77.165C232.004,-79.39 225.866,-81.028 219.776,-82.16C213.688,-83.292 207.661,-83.901 201.711,-84.093C198.836,-84.187 196.045,-83.871 193.213,-83.771L193.32,-25.658C224.178,-25.892 252.177,-37.972 273.226,-57.507L273.226,-57.507L273.226,-57.507Z" style="fill-rule:nonzero;"/>
        <path id="path3689" d="M193.169,-129.057L193.279,-87.217C196.182,-87.316 199.044,-87.632 201.993,-87.539C208.094,-87.346 214.274,-86.738 220.517,-85.606C226.76,-84.473 233.055,-82.836 239.371,-80.611C242.529,-79.498 245.689,-78.212 248.852,-76.797C252.016,-75.383 255.174,-73.806 258.334,-72.071C261.494,-70.335 264.667,-68.454 267.815,-66.378C270.338,-64.714 272.813,-62.846 275.323,-60.953C297.519,-81.043 311.976,-109.068 314.236,-140.443C307.921,-138.969 301.532,-137.565 294.999,-136.415C286.921,-134.992 278.691,-133.791 270.392,-132.816C262.093,-131.841 253.744,-131.087 245.346,-130.507C236.948,-129.926 228.509,-129.511 220.135,-129.271C211.761,-129.032 203.424,-128.955 195.198,-129.003C194.497,-129.006 193.87,-129.051 193.17,-129.056L193.169,-129.057Z" style="fill-rule:nonzero;"/>
        <path id="path3673" d="M193.169,-132.494C193.868,-132.489 194.496,-132.445 195.197,-132.441C203.422,-132.393 211.758,-132.47 220.131,-132.709C228.504,-132.949 236.943,-133.364 245.34,-133.945C253.738,-134.525 262.086,-135.279 270.385,-136.254C278.684,-137.229 286.914,-138.43 294.991,-139.853C301.523,-141.003 307.912,-142.407 314.226,-143.881C314.429,-146.695 314.719,-149.502 314.719,-152.367C314.719,-182.228 303.504,-209.482 285.072,-230.462C282.843,-227.547 280.833,-224.7 278.167,-221.707C275.926,-219.191 273.547,-216.675 270.988,-214.188C268.429,-211.7 265.708,-209.266 262.823,-206.883C259.938,-204.501 256.89,-202.157 253.671,-199.955C250.451,-197.753 247.039,-195.67 243.478,-193.725C239.916,-191.78 236.211,-189.965 232.298,-188.354C228.385,-186.742 224.295,-185.313 220.023,-184.11C215.75,-182.908 211.291,-181.927 206.651,-181.21C202.31,-180.54 197.73,-180.209 193.06,-180.029L193.17,-132.496L193.169,-132.494Z" style="fill-rule:nonzero;"/>
        <path id="path3651" d="M193.678,-183.454C198.194,-183.635 202.622,-183.965 206.82,-184.636C211.307,-185.352 215.619,-186.334 219.75,-187.536C223.881,-188.738 227.837,-190.167 231.62,-191.779C235.404,-193.391 238.987,-195.205 242.431,-197.15C245.875,-199.095 249.175,-201.179 252.288,-203.381C255.401,-205.583 258.348,-207.926 261.138,-210.309C263.927,-212.692 266.559,-215.126 269.033,-217.613C271.508,-220.101 273.808,-222.617 275.976,-225.133C278.553,-228.125 280.497,-230.973 282.653,-233.887C261.047,-259.319 229.153,-275.508 193.465,-275.62L193.677,-183.454L193.678,-183.454Z" style="fill-rule:nonzero;"/>
    </g>
</svg>
