<?xml version="1.0" encoding="UTF-8" standalone="no"?><!DOCTYPE svg PUBLIC "-//W3C//DTD SVG 1.1//EN" "http://www.w3.org/Graphics/SVG/1.1/DTD/svg11.dtd"><svg width="100%" height="100%" viewBox="0 0 391 398" version="1.1" xmlns="http://www.w3.org/2000/svg" xmlns:xlink="http://www.w3.org/1999/xlink" xml:space="preserve" xmlns:serif="http://www.serif.com/" style="fill-rule:evenodd;clip-rule:evenodd;stroke-linejoin:round;stroke-miterlimit:2;"><g id="g3709"></g><g id="g5216"></g><path id="path5268" d="M192.609,19.805c-43.08,0 -82.504,15.385 -113.231,40.921c17.96,20.073 47.438,64.698 44.409,139.436c-2.804,69.156 -24.984,113.309 -41.431,135.948c30.28,24.066 68.571,38.454 110.256,38.454c42.626,0 81.71,-15.022 112.296,-40.07c-16.485,-22.472 -38.945,-66.826 -41.771,-136.546c-2.93,-72.285 25.286,-117.768 43.343,-138.754c-30.714,-25.485 -70.83,-39.394 -113.871,-39.394l0,0.005Zm125.399,51.98c-35.654,35.831 -36.837,119.702 -36.837,119.702c4.877,75.591 23.696,111.543 39.219,128.549c30.653,-31.88 49.598,-75.119 49.598,-122.845c0,-48.99 -19.882,-93.3 -51.98,-125.399l0,-0.007Zm-251.05,0.255c-31.954,32.083 -51.725,76.287 -51.725,125.146c0,48.665 19.654,92.751 51.384,124.8c15.493,-17.072 34.274,-53.049 39.135,-128.373c0,0 -1.19,-86.921 -38.794,-121.573Z" style="fill-rule:nonzero;"/></svg>